Plot : In Istanbul, retired CIA operative Bryan Mills and his wife are taken hostage by the father of a kidnapper Mills killed while rescuing his daughter.



Director:
Olivier Megaton

Writers:
Luc Besson (screenplay), Robert Mark Kamen (screenplay)

Stars:
Liam Neeson, Famke Janssen and Maggie Grace

Genres:
Action | Crime | Drama | Thriller


Country:
France

Language:
English 


Format : MPEG-4
Format profile : Base Media
Codec ID : isom
File size : 692 MiB
Duration : 1h 26mn
Overall bit rate : 1 123 Kbps
Encoded date : UTC 2011-12-31 00:00:00
Tagged date : UTC 2011-12-31 00:00:00
Writing application : Lavf54.26.100

Video
ID : 1
Format : AVC
Format/Info : Advanced Video Codec
Format profile : Main@L4.1
Format settings, CABAC : Yes
Format settings, ReFrames : 2 frames
Codec ID : avc1
Codec ID/Info : Advanced Video Coding
Duration : 1h 26mn
Bit rate : 1 055 Kbps
Width : 640 pixels
Height : 256 pixels
Display aspect ratio : 2.40:1
Original display aspect ratio : 2.40:1
Frame rate mode : Constant
Frame rate : 25.000 fps
Color space : YUV
Chroma subsampling : 4:2:0
Bit depth : 8 bits
Scan type : Progressive
Bits/(Pixel*Frame) : 0.258
Stream size : 649 MiB (94%)
Writing library : x264 core 128 r2208
Encoding settings : cabac=1 / ref=2 / deblock=1:0:0 / analyse=0x1:0x131 / me=hex / subme=7 / psy=1 / psy_rd=1.00:0.00 / mixed_ref=0 / me_range=16 / chroma_me=1 / trellis=1 / 8x8dct=0 / cqm=0 / deadzone=21,11 / fast_pskip=1 / chroma_qp_offset=-2 / threads=3 / lookahead_threads=1 / sliced_threads=0 / nr=0 / decimate=1 / interlaced=0 / bluray_compat=0 / constrained_intra=0 / bframes=3 / b_pyramid=0 / b_adapt=1 / b_bias=0 / direct=3 / weightb=1 / open_gop=0 / weightp=2 / keyint=250 / keyint_min=25 / scenecut=40 / intra_refresh=0 / rc_lookahead=40 / rc=abr / mbtree=1 / bitrate=1055 / ratetol=1.0 / qcomp=0.60 / qpmin=10 / qpmax=69 / qpstep=4 / vbv_maxrate=24000 / vbv_bufsize=24000 / nal_hrd=none / ip_ratio=1.40 / aq=1:1.00
Encoded date : UTC 2011-12-31 00:00:00
Tagged date : UTC 2011-12-31 00:00:00

Audio
ID : 2
Format : AAC
Format/Info : Advanced Audio Codec
Format profile : LC
Codec ID : 40
Duration : 1h 26mn
Duration_LastFrame : -6ms
Bit rate mode : Constant
Bit rate : 64.0 Kbps
Channel(s) : 2 channels
Channel positions : Front: L R
Sampling rate : 44.1 KHz
Compression mode : Lossy
Delay relative to video : -1ms
Stream size : 39.4 MiB (6%)
Encoded date : UTC 2011-12-31 00:00:00
Tagged date : UTC 2011-12-31 00:00:00


Screens :

 
http://tippic.eu/?v=vlcsnacoc.png
 
http://tippic.eu/?v=vlcsnarnr.png
 
http://tippic.eu/?v=vlcsnagfg.png
 
http://tippic.eu/?v=vlcsnadjd.png
 
http://tippic.eu/?v=vlcsnakdk.png
 
http://tippic.eu/?v=vlcsnaere.png